<svg xmlns="http://www.w3.org/2000/svg" viewBox="0 0 100 38.4939">
	<path
		d="M13.6487,17.4882q0,2.2542-.0371,4.4836t-.2725,4.2853a23.9765,23.9765,0,0,1-.7431,3.8395,10.2528,10.2528,0,0,1-1.4491,3.1211,7.1825,7.1825,0,0,1-2.4028,2.1551,8.2249,8.2249,0,0,1-3.567.9413l-4.9046.322V35.72a7.6585,7.6585,0,0,0,1.04-.0619,1.6615,1.6615,0,0,0,.7431-.2725,1.2617,1.2617,0,0,0,.4459-.6069,3.2038,3.2038,0,0,0,.1486-1.09L2.8486,2.9477a2.9324,2.9324,0,0,0-.21-1.2633A1.2351,1.2351,0,0,0,2.056,1.09,2.1279,2.1279,0,0,0,1.1518.9165H0V0H5.1771A8.342,8.342,0,0,1,8.7689.6936a6.4772,6.4772,0,0,1,2.4028,1.92,8.84,8.84,0,0,1,1.4367,2.8858,21.7277,21.7277,0,0,1,.7307,3.6042,39.7863,39.7863,0,0,1,.2725,4.0872Q13.6488,15.3331,13.6487,17.4882Zm-2.5266-.3963q0-4.2358-.1486-7.295A21.3814,21.3814,0,0,0,10.23,4.7684,5.76,5.76,0,0,0,8.4716,1.8578,4.9442,4.9442,0,0,0,5.2762.9165L5.078,35.348a4.18,4.18,0,0,0,3.3069-1.3624,8.928,8.928,0,0,0,1.8083-3.8023,30.2532,30.2532,0,0,0,.7679-5.784Q11.1222,21.0552,11.1221,17.0919Z" />
	<path
		d="M18.5183,18.4048q1.1146,0,1.8206.0371a2.1012,2.1012,0,0,0,1.0776-.161,1.01,1.01,0,0,0,.483-.7431,8.4915,8.4915,0,0,0,.0867-1.7092h.8422v6.6881h-.8422V20.5846a1.8573,1.8573,0,0,0-.0619-.4459,1.7209,1.7209,0,0,0-.1858-.4582,1.4113,1.4113,0,0,0-.2972-.3592.6251.6251,0,0,0-.4212-.1486l-2.5018.05.2725,9.8836H20.277q.7184,0,1.4367-.05a2.0168,2.0168,0,0,0,.9042-.2724,3.09,3.09,0,0,0,.7679-.6193,3.0307,3.0307,0,0,0,.5325-.83,2.2646,2.2646,0,0,0,.1982-.9042l.05-3.4927h.867l-.0743,6.9359q-2.8486.05-5.7221.1362t-5.722.161l-.05-.8917q.6441,0,1.1519-.0124a2.0116,2.0116,0,0,0,.8546-.1858,1.1591,1.1591,0,0,0,.5325-.57A2.8439,2.8439,0,0,0,16.19,27.347v-.1486L15.843,11.2212A3.4247,3.4247,0,0,0,15.62,9.995a1.4475,1.4475,0,0,0-.5573-.6812,2.0278,2.0278,0,0,0-.8918-.2724,9.6554,9.6554,0,0,0-1.2262-.0248l-.05-.8422,11.5185-.322.05,7.06h-.867l-.0495-3.6909a3.3493,3.3493,0,0,0-.4087-1.6844,1.5984,1.5984,0,0,0-1.5235-.7184q-.8421,0-1.6472.0248T18.32,8.868Z" />
	<path
		d="M35.3274,19.1727H34.46V16.0763a10.7639,10.7639,0,0,0-.1734-1.7835,8.4186,8.4186,0,0,0-.57-1.9321A4.4033,4.4033,0,0,0,32.64,10.8249a2.3942,2.3942,0,0,0-1.672-.6193,2.43,2.43,0,0,0-1.7959.6317,4.0076,4.0076,0,0,0-.9165,2.0807,23.2007,23.2007,0,0,0-.3344,3.84q-.05,2.39-.0495,5.9078,0,.57-.0124,1.5978t.0495,2.2417q.0619,1.2138.223,2.4771a12.8294,12.8294,0,0,0,.4954,2.3037,4.9155,4.9155,0,0,0,.8917,1.6968,1.76,1.76,0,0,0,1.4.6564,2.4779,2.4779,0,0,0,1.3-.3344,3.2193,3.2193,0,0,0,.9537-.8793,5.2676,5.2676,0,0,0,.6565-1.2262,8.2034,8.2034,0,0,0,.3963-1.3995,10.6247,10.6247,0,0,0,.1734-1.4,11.9258,11.9258,0,0,0,.0124-1.2014h.8669a15.5837,15.5837,0,0,1-.21,2.4895,8.2648,8.2648,0,0,1-.7555,2.39A5.2372,5.2372,0,0,1,32.85,33.8865a3.7006,3.7006,0,0,1-2.3532.7184,3.5783,3.5783,0,0,1-2.217-.6812,5.4383,5.4383,0,0,1-1.4987-1.7711A9.4853,9.4853,0,0,1,25.8773,29.7a24.0734,24.0734,0,0,1-.4583-2.7248q-.1485-1.3624-.1734-2.601t-.0247-2.0559q0-1.7093.0247-3.3689t.1734-3.1335a19.9038,19.9038,0,0,1,.4583-2.7372,7.097,7.097,0,0,1,.8918-2.1674,4.0689,4.0689,0,0,1,3.6784-1.9445,3.8793,3.8793,0,0,1,2.44.7926,5.0869,5.0869,0,0,1,1.5729,2.056V6.7377h.867Z" />
	<path
		d="M39.877,18.4048q1.1146,0,1.8206.0371a2.1012,2.1012,0,0,0,1.0776-.161,1.01,1.01,0,0,0,.483-.7431,8.4915,8.4915,0,0,0,.0867-1.7092h.8422v6.6881h-.8422V20.5846a1.8573,1.8573,0,0,0-.0619-.4459,1.7209,1.7209,0,0,0-.1858-.4582,1.41,1.41,0,0,0-.2973-.3592.6248.6248,0,0,0-.4211-.1486l-2.5018.05.2725,9.8836h1.4862q.7184,0,1.4367-.05a2.0168,2.0168,0,0,0,.9042-.2724,3.09,3.09,0,0,0,.7678-.6193,3.0287,3.0287,0,0,0,.5326-.83,2.2663,2.2663,0,0,0,.1982-.9042l.05-3.4927h.867l-.0743,6.9359q-2.8486.05-5.7221.1362t-5.722.161l-.05-.8917q.6441,0,1.1519-.0124a2.0116,2.0116,0,0,0,.8546-.1858,1.16,1.16,0,0,0,.5325-.57,2.8439,2.8439,0,0,0,.1858-1.1643v-.1486l-.3468-15.9772a3.4247,3.4247,0,0,0-.2229-1.2262,1.4471,1.4471,0,0,0-.5574-.6812,2.0274,2.0274,0,0,0-.8917-.2724,9.6559,9.6559,0,0,0-1.2262-.0248l-.05-.8422,11.5184-.322.05,7.06h-.867l-.0495-3.6909a3.3483,3.3483,0,0,0-.4088-1.6844,1.5981,1.5981,0,0,0-1.5234-.7184q-.8421,0-1.6472.0248t-1.6473.0248Z" />
	<path
		d="M53.02,28.9571v.867H45.9355v-.9165H48.264l.0495-15.2093a5.6455,5.6455,0,0,0-.0743-.9041,2.8,2.8,0,0,0-.2725-.8423,1.8018,1.8018,0,0,0-.5325-.6316,1.5245,1.5245,0,0,0-.8546-.2725H45.5144v-.8422l5.4248.0991-.1981,18.6029ZM51.0135,5.4744a1.6063,1.6063,0,0,1-.4706,1.1394,1.4871,1.4871,0,0,1-1.1147.4954,1.5663,1.5663,0,0,1-1.1395-.4954,1.5666,1.5666,0,0,1-.4954-1.1394,1.4489,1.4489,0,0,1,.4954-1.1023,1.6291,1.6291,0,0,1,1.1395-.4583,1.5441,1.5441,0,0,1,1.1147.4583A1.483,1.483,0,0,1,51.0135,5.4744Z" />
	<path
		d="M56.428,10.2551h5.3258v.8422H58.7565a1.7009,1.7009,0,0,0-.9537.2849,2.5663,2.5663,0,0,0-.7307.7308,3.7084,3.7084,0,0,0-.4583.966,4.0519,4.0519,0,0,0-.1858.9661l-.099,18.33q0,.6193.0371,1.4615a6.8373,6.8373,0,0,0,.26,1.61,3.3363,3.3363,0,0,0,.6936,1.3,1.691,1.691,0,0,0,1.3376.5326,1.4991,1.4991,0,0,0,.9661-.2973,2.0682,2.0682,0,0,0,.5821-.7431,3.3632,3.3632,0,0,0,.2849-.9661,5.1127,5.1127,0,0,0,.05-.9908l.9165.2229a5.3842,5.3842,0,0,1-.31,1.9693,3.2864,3.2864,0,0,1-.7927,1.2262,2.6647,2.6647,0,0,1-1.1023.6192,4.5747,4.5747,0,0,1-1.2385.1734,3.2137,3.2137,0,0,1-2.0188-.6192,4.4776,4.4776,0,0,1-1.2757-1.5482,7.334,7.334,0,0,1-.6689-2.0436,11.9291,11.9291,0,0,1-.1981-2.0808l.0991-21.1048H50.8051v-.8422H53.951l.05-6.0936,2.4771-2.13Z" />
	<path
		d="M74.9463,11.568v.644H73.98a1.6514,1.6514,0,0,0-1.2386.4211,2.066,2.066,0,0,0-.6936,1.1147L67.9362,34.3324a.1524.1524,0,0,1-.0248.0867.1529.1529,0,0,0-.0248.0867.851.851,0,0,0,.2106.6441,1.0381,1.0381,0,0,0,.52.26,2.8277,2.8277,0,0,0,.6564.05q.3468-.0124.644-.0124v.6688l-6.5395-.05.05-.6193h1.1147a.7648.7648,0,0,0,.6192-.2353.9893.9893,0,0,0,.1982-.6564v-.2725L61.7435,13.4506a2.0235,2.0235,0,0,0-.2973-.8175.9232.9232,0,0,0-.4954-.3591A2.1815,2.1815,0,0,0,60.27,12.2q-.384.0123-.8546.0123v-.644l6.812-.05v.5945q-.3716,0-.7308.0123a1.9437,1.9437,0,0,0-.644.1239.8951.8951,0,0,0-.4459.3716,1.5076,1.5076,0,0,0-.161.78.1012.1012,0,0,0,.0248.0744.1008.1008,0,0,1,.0248.0743l3.1459,19.0735,3.6908-18.9249v-.2477a1.1809,1.1809,0,0,0-.2477-.8175,1.3386,1.3386,0,0,0-.6193-.3839,2.5368,2.5368,0,0,0-.805-.0991q-.4335.0124-.8051.0124V11.568Z" />
	<path
		d="M79.7416,28.9571v.867H72.6571v-.9165h2.3285l.0495-15.2093a5.6455,5.6455,0,0,0-.0743-.9041,2.8029,2.8029,0,0,0-.2725-.8423,1.801,1.801,0,0,0-.5326-.6316,1.524,1.524,0,0,0-.8546-.2725H72.236v-.8422l5.4248.0991-.1982,18.6029ZM77.7351,5.4744a1.6067,1.6067,0,0,1-.4706,1.1394,1.4872,1.4872,0,0,1-1.1147.4954A1.5663,1.5663,0,0,1,75.01,6.6138a1.5662,1.5662,0,0,1-.4954-1.1394A1.4486,1.4486,0,0,1,75.01,4.3721,1.6291,1.6291,0,0,1,76.15,3.9138a1.5443,1.5443,0,0,1,1.1147.4583A1.4834,1.4834,0,0,1,77.7351,5.4744Z" />
	<path
		d="M85.0343,33.8865l-7.357.2478-.05-.867.867-.05a1.193,1.193,0,0,0,.644-.1857,1.8387,1.8387,0,0,0,.5078-.4707,2.4923,2.4923,0,0,0,.3344-.6193,1.8207,1.8207,0,0,0,.1239-.6316l.322-27.4461a5.2746,5.2746,0,0,0-.0743-.867,2.8758,2.8758,0,0,0-.26-.8175,1.67,1.67,0,0,0-.5326-.6192,1.4536,1.4536,0,0,0-.867-.2477l-.867.05V.4459h5.1276l-.3468,30.4929a1.9656,1.9656,0,0,0,.1363.6688,3.07,3.07,0,0,0,.3591.6936,2.0433,2.0433,0,0,0,.5326.5326,1.0547,1.0547,0,0,0,.6812.1858h.7184Z" />
	<path
		d="M90.1515,33.8865l-7.3569.2478-.05-.867.867-.05a1.1927,1.1927,0,0,0,.644-.1857,1.8391,1.8391,0,0,0,.5079-.4707,2.4955,2.4955,0,0,0,.3344-.6193,1.8227,1.8227,0,0,0,.1238-.6316l.322-27.4461a5.2637,5.2637,0,0,0-.0743-.867,2.87,2.87,0,0,0-.26-.8175,1.67,1.67,0,0,0-.5325-.6192,1.4536,1.4536,0,0,0-.867-.2477l-.867.05V.4459h5.1276L87.724,30.9388a1.9677,1.9677,0,0,0,.1362.6688,3.0706,3.0706,0,0,0,.3592.6936,2.04,2.04,0,0,0,.5326.5326,1.0547,1.0547,0,0,0,.6812.1858h.7183Z" />
	<path
		d="M93.4853,18.4048q1.1146,0,1.8206.0371a2.1014,2.1014,0,0,0,1.0776-.161,1.01,1.01,0,0,0,.483-.7431,8.4915,8.4915,0,0,0,.0867-1.7092h.8422v6.6881h-.8422V20.5846a1.8624,1.8624,0,0,0-.0619-.4459,1.7243,1.7243,0,0,0-.1858-.4582,1.41,1.41,0,0,0-.2973-.3592.6248.6248,0,0,0-.4211-.1486l-2.5018.05.2724,9.8836H95.244q.7183,0,1.4367-.05a2.0164,2.0164,0,0,0,.9041-.2724,3.0885,3.0885,0,0,0,.7679-.6193,3.0287,3.0287,0,0,0,.5326-.83,2.2663,2.2663,0,0,0,.1982-.9042l.0495-3.4927H100l-.0743,6.9359q-2.8487.05-5.7221.1362t-5.7221.161l-.0495-.8917q.6441,0,1.1518-.0124a2.0113,2.0113,0,0,0,.8546-.1858,1.1593,1.1593,0,0,0,.5326-.57,2.8439,2.8439,0,0,0,.1858-1.1643v-.1486L90.81,11.2212a3.4247,3.4247,0,0,0-.2229-1.2262,1.4471,1.4471,0,0,0-.5574-.6812,2.0274,2.0274,0,0,0-.8917-.2724,9.6559,9.6559,0,0,0-1.2262-.0248l-.0495-.8422,11.5184-.322.05,7.06h-.867l-.05-3.6909a3.3483,3.3483,0,0,0-.4087-1.6844,1.5983,1.5983,0,0,0-1.5234-.7184q-.8422,0-1.6472.0248t-1.6473.0248Z" />
	<style>
		path {
			fill: currentColor;
		}
	</style>
</svg>