<?xml version="1.0" encoding="utf-8"?>
<!-- Generator: Adobe Illustrator 25.2.0, SVG Export Plug-In . SVG Version: 6.00 Build 0)  -->
<svg version="1.1" id="Layer_1" xmlns="http://www.w3.org/2000/svg" xmlns:xlink="http://www.w3.org/1999/xlink" x="0px" y="0px"
	 viewBox="0 0 13.6487 36.6361" style="enable-background:new 0 0 13.6487 36.6361;" xml:space="preserve">
<defs>
	<mask id="splash-mask">
		<path d="M13.6487,17.4882c0,1.5028-0.0124,2.9973-0.0371,4.4836c-0.0247,1.4863-0.1156,2.9147-0.2725,4.2853
			c-0.1427,1.2979-0.3913,2.582-0.7431,3.8395c-0.3038,1.1146-0.7937,2.1698-1.4491,3.1211
			c-0.6271,0.8914-1.4487,1.6283-2.4028,2.1551c-1.1024,0.5798-2.3221,0.9017-3.567,0.9413l-4.9046,0.322V35.72
			c0.3477,0.003,0.6951-0.0177,1.04-0.0619c0.266-0.0296,0.521-0.1231,0.7431-0.2725c0.207-0.1522,0.3625-0.3639,0.4459-0.6069
			c0.112-0.352,0.1623-0.7208,0.1486-1.09l0.1985-30.741c0.0239-0.4314-0.0478-0.8628-0.21-1.2633
			C2.519,1.4248,2.3131,1.2148,2.056,1.09C1.7709,0.9669,1.4622,0.9077,1.1518,0.9165H0V0h5.1771
			c1.2338-0.0374,2.4606,0.1995,3.5918,0.6936c0.9435,0.4378,1.7676,1.0964,2.4028,1.92c0.6517,0.8657,1.1387,1.8439,1.4367,2.8858
			c0.345,1.1786,0.5894,2.3843,0.7307,3.6042c0.161,1.3568,0.2519,2.721,0.2725,4.0872
			C13.6364,14.619,13.6488,16.0515,13.6487,17.4882z M11.1221,17.0919c0-2.8239-0.0495-5.2555-0.1486-7.295
			c-0.047-1.6998-0.2966-3.3879-0.7435-5.0285C9.9501,3.6433,9.3373,2.6289,8.4716,1.8578C7.5474,1.1839,6.4181,0.8512,5.2762,0.9165
			L5.078,35.348c1.2507,0.0642,2.4644-0.4358,3.3069-1.3624c0.8973-1.1051,1.5173-2.4088,1.8083-3.8023
			c0.4417-1.8988,0.6989-3.8358,0.7679-5.784C11.0685,22.1699,11.1222,19.7341,11.1221,17.0919z"/>
	</mask>
</defs>
<g mask="url(#splash-mask)">
	<rect x="0" y="0" width="100%" height="100%" fill="var(--colour-unfilled, #fff)" />
	<rect id="splash-mask-fill" x="0" y="0" width="100%" height="100%" fill="var(--colour-filled, #ddd)" />
</g>
</svg>
