<svg xmlns="http://www.w3.org/2000/svg" viewBox="0 0 366.7143 126.4286">
	<defs>
		<style>
			.a {
				fill: none;
				stroke: currentColor;
				stroke-linecap: square;
				stroke-miterlimit: 10;
				stroke-width: 3px;
			}
		</style>
	</defs>
	<path class="a"
		d="M20.2429,18.0714s.2285,8.4572-8,8.4572c-5.7143,0-10.7429-3.6-10.7429-10.2857,0-6.3429,6.1714-9.6,13.0286-9.6s12.3428,1.8285,22.8571,8.9142,46.6286,33.6,71.0857,48,45.9429,24.2286,55.5429,24,22.7314-10.1285,21.0286-30.4c-2.4-28.5714-28.098-38.6075-53.2572-41.6-25.9428-3.0857-49.8286,5.2572-49.8286,29.4858s29.2572,47.3142,62.8572,47.3142c29.9428,0,24.2469-24.9664,19.8857-37.4857-4.8571-13.9428-2.51-44.2079,29.9429-43.6571,33.667.5714,45.9428,32.8,44.3428,54.6286C237.5989,84.7635,222.9,95.5857,203.0429,92.3571,187.9271,89.9,158.5286,64.4714,135.2143,47.7857S81.2371,9.6143,56.1286,9.6143,29.8429,29.5,29.8429,35.2143s3.6571,16,18.9714,16" />
	<path class="a"
		d="M81.0462,45.9747S77.9,42.3,77.9,27.5571s10.0035-21.7229,19.5429-22.8c10.6285-1.2,34.1142.6858,63.6,38.2286C183.21,71.21,188.644,92.8926,211.2726,92.8926s10.2845-32.0783,18.4285-62.8405C234.42,12.2266,247.6143,1.5,280.7,1.5c38.4,0,84.5143,25.5429,84.5143,62.4,0,24.3429-20.2286,29.6-32.2286,29.6s-50.5714-12.6286-51.6-41.2571c-.9787-27.24,14.439-30.2323,27.4481-30.2323S346.1857,35.1,346.1857,53.6143c0,19.2-13.2,23.6571-22.1143,23.6571-7.7912,0-22.9714-3.0857-32.4-15.6-4.9622-6.5863-13.5409-23.2951-3.358-33.41" />
	<path class="a"
		d="M162.17,87.491s24.3968,5.98,43.0492,5.98,42.2239-11.7428,62.4524-11.7428,27.3524,11.6321,26.7429,23.9143c-.5714,11.5142-8.3429,19.2857-20.5714,19.2857-8.9143,0-16.5429-5.6572-16.5429-14.1429s6.2571-10.1143,9.8571-10.1143c5.3143,0,8.7616,4.3806,7.7143,10.1143-1.1428,6.2572-7.0857,13.9143-26.7428,13.9143" />
	<path class="a"
		d="M315.7842,22.9815c-7.5148-3.2867-17.923-5.7591-31.6556-7.0815-45.5774-4.389-42.9715,28.6857-34.7429,38.8571,8.58,10.6058,21.0925,15.5383,39.9682,34.8721" />
</svg>