<svg xmlns="http://www.w3.org/2000/svg" viewBox="0 0 196.0135 253.9714">
	<defs>
		<style>
			.a {
				fill: none;
				stroke: currentColor;
				stroke-linecap: square;
				stroke-miterlimit: 10;
				stroke-width: 3px;
			}
		</style>
	</defs>
	<path class="a"
		d="M46.3571,138.51C52.4143,158.2049,64.8732,163.2434,79.5,163.5c13.0286.2286,19.5713-6.9475,20.7429-14.9143C101.9571,136.9286,91.5,121.9,64.5857,122.3571,24.9914,123.03,5.1,159.3857,5.1,181.6714S19.3286,209.1,26.0143,209.1s12-5.4857,12-11.1429-4.6286-13.5428-11.8286-13.5428S11.1,189.7286,11.1,209.6143s18.8571,42.8571,37.3714,42.8571,26.4-11.1428,26.4-26.5714-6-30.3429-37.5428-65.8286S1.5,116.0143,1.5,101.9571c0-13.5428,8.0571-20.9142,17.8286-20.9142s12.74,7.2053,12.5143,12C31.5,100.3286,26.77,103.7084,22.0714,104.1c-3.0857.2571-15.9428-1.2857-14.5714-24.6C9.5335,44.9312,42.9857,7.7806,85.3286,7.7806s68.2285,48.5765,68.2285,73.4337-19.0285,31.3714-43.2,25.0286c-23.214-6.0917-38.7428-17.3143-38.7428-35.8286S83.7857,41.4429,99.0429,41.4429s30.4,6.1714,35.0857,16.5714c5.6415,12.5214-.4572,24.4-17.0857,17.3345-4.7333-2.0112-26.0572-14.02-26.0572-33.22S114.9857,1.5,150.3,1.5c26.5714,0,40.9714,9.0857,43.8,21.4286,2.6422,11.53-7.8857,18.3428-17.1429,18.3428s-14.036-3.5366-15.9428-9.2571C158.1,23.2714,166.0714,16.7571,176.8714,23.1c6.6782,3.9221,13.0286,13.8857,8.5715,30" />
	<path class="a"
		d="M43.0119,77.3977c-2.4439,17.5776-.36,32.7285,19.1738,33.988,8.5691.5525,12.8572-1.9714,26.0572-.5143,19.2544,2.1255,33.9428,21.4286,33.9428,35.6572s-8.5714,32.0571-31.0286,32.0571-49.7142-20.9143-49.7142-76.4571S61.3628,24.489,91.0714,23.1c33-1.5429,47.7429,23.1429,46.0286,40.8-1.3915,14.3326-9.3054,22.9729-22.2857,25.3714C99.0429,92.1857,87.2254,81.1691,84.3,69.7286c-3.2-12.5143-6.4192-43.2673,34.9047-61.948" />
	<path class="a" d="M7.8937,75.3488s-11.708,66.8941,81.4452,66.2083c35.4189-.2607,27.45,26.4528,22.2166,30.0264" />
</svg>