<svg xmlns="http://www.w3.org/2000/svg" version="1.1" xmlns:xlink="http://www.w3.org/1999/xlink"
	xmlns:svgjs="http://svgjs.com/svgjs" width="38.5" height="38.5">
	<svg version="1.1" id="SvgjsSvg1000" xmlns:svgjs="http://svgjs.com/svgjs" xmlns="http://www.w3.org/2000/svg"
		xmlns:xlink="http://www.w3.org/1999/xlink" x="0px" y="0px" viewBox="0 0 38.5 38.5"
		style="enable-background:new 0 0 38.5 38.5;" xml:space="preserve">
		<path d="M26.4188,18.3772c0,1.5793-0.013,3.1498-0.039,4.7117c-0.026,1.5619-0.1215,3.063-0.2864,4.5033
			c-0.15,1.3639-0.4112,2.7134-0.7809,4.0348c-0.3193,1.1713-0.8341,2.2802-1.5228,3.2799c-0.659,0.9368-1.5224,1.7111-2.525,2.2647
			c-1.1585,0.6093-2.4402,0.9476-3.7485,0.9892l-5.1541,0.3384v-0.9627c0.3654,0.0032,0.7305-0.0186,1.0929-0.065
			c0.2795-0.0311,0.5475-0.1294,0.7809-0.2864c0.2175-0.1599,0.3809-0.3824,0.4686-0.6378c0.1177-0.3699,0.1706-0.7575,0.1562-1.1455
			l0.2086-32.305c0.0251-0.4533-0.0502-0.9067-0.2207-1.3276c-0.1257-0.2728-0.3421-0.4935-0.6122-0.6246
			c-0.2996-0.1294-0.624-0.1916-0.9502-0.1823h-1.2104v-0.9631h5.4405c1.2966-0.0393,2.5858,0.2096,3.7745,0.7289
			c0.9915,0.4601,1.8575,1.1522,2.525,2.0177c0.6849,0.9097,1.1966,1.9377,1.5098,3.0326C25.6881,7.017,25.945,8.284,26.0934,9.566
			c0.1692,1.4258,0.2647,2.8594,0.2864,4.2951C26.4059,15.362,26.4189,16.8674,26.4188,18.3772z M23.7636,17.9607
			c0-2.9676-0.052-5.5229-0.1562-7.6661c-0.0494-1.7863-0.3117-3.5603-0.7813-5.2843c-0.2941-1.1823-0.9381-2.2483-1.8479-3.0587
			c-0.9712-0.7082-2.158-1.0578-3.358-0.9892L17.412,37.1456c1.3143,0.0675,2.5898-0.458,3.4751-1.4317
			c0.943-1.1613,1.5945-2.5314,1.9003-3.9957c0.4642-1.9954,0.7345-4.031,0.807-6.0783
			C23.7073,23.2971,23.7638,20.7373,23.7636,17.9607z" />
	</svg>
	<style>
		@media (prefers-color-scheme: light) {
			:root {
				filter: none;
			}
		}

		@media (prefers-color-scheme: dark) {
			:root {
				filter: invert(100%);
			}
		}
	</style>
</svg>